<?xml version="1.0" standalone="no"?>
<!DOCTYPE svg PUBLIC "-//W3C//DTD SVG 20010904//EN"
 "http://www.w3.org/TR/2001/REC-SVG-20010904/DTD/svg10.dtd">
<svg version="1.0" xmlns="http://www.w3.org/2000/svg"
 width="512.000000pt" height="512.000000pt" viewBox="0 0 512.000000 512.000000"
 preserveAspectRatio="xMidYMid meet">

<g transform="translate(0.000000,512.000000) scale(0.100000,-0.100000)"
fill="#000000" stroke="none">
<path d="M1524 3902 l-301 -2 -5 -433 c-6 -534 -2 -2237 6 -2244 8 -8 2665 -8
2673 0 7 8 9 2665 1 2672 -6 6 -1888 12 -2374 7z m2086 -1342 l0 -1050 -1050
0 -1050 0 0 1050 0 1050 1050 0 1050 0 0 -1050z"/>
<path d="M2158 3144 c-173 -41 -305 -179 -338 -353 -6 -31 -10 -220 -10 -442
l0 -389 150 0 150 0 0 150 0 150 150 0 150 0 0 -150 0 -150 150 0 150 0 0 395
c0 250 -4 413 -11 447 -28 131 -123 253 -244 309 -103 49 -193 59 -297 33z
m189 -312 c48 -34 63 -77 63 -181 l0 -91 -151 0 -151 0 4 104 c3 117 16 146
79 179 44 23 115 18 156 -11z"/>
<path d="M3010 2560 l0 -600 150 0 150 0 0 600 0 600 -150 0 -150 0 0 -600z"/>
</g>
</svg>
